<?xml version="1.0" standalone="no"?>
<!DOCTYPE svg PUBLIC "-//W3C//DTD SVG 20010904//EN"
 "http://www.w3.org/TR/2001/REC-SVG-20010904/DTD/svg10.dtd">
<svg version="1.0" xmlns="http://www.w3.org/2000/svg"
 width="1961.000000pt" height="1961.000000pt" viewBox="0 0 1961.000000 1961.000000"
 preserveAspectRatio="xMidYMid meet">
<metadata>
Created by potrace 1.11, written by Peter Selinger 2001-2013
</metadata>
<g transform="translate(0.000000,1961.000000) scale(0.100000,-0.100000)"
fill="#000000" stroke="none">
<path d="M9799 19468 c-5 -14 -4 -58 1 -58 4 0 7 14 6 30 -1 26 -3 36 -7 28z"/>
<path d="M9791 19338 c-1 -63 -7 -150 -16 -243 -16 -170 -15 -162 -35 -315
-13 -98 -14 -103 -35 -230 -119 -703 -351 -1457 -707 -2290 -39 -91 -84 -194
-100 -230 -16 -36 -37 -81 -45 -100 -9 -19 -39 -82 -66 -140 -27 -58 -65 -139
-84 -180 -45 -96 -252 -509 -308 -615 -23 -44 -63 -118 -88 -165 -67 -127
-320 -586 -414 -750 -55 -97 -340 -581 -406 -690 -42 -69 -88 -145 -103 -170
-53 -88 -377 -616 -409 -665 -17 -27 -96 -153 -175 -280 -79 -126 -163 -259
-186 -295 -23 -36 -180 -285 -349 -555 -169 -269 -318 -506 -330 -525 -35 -54
-297 -476 -344 -555 -23 -38 -67 -110 -98 -160 -30 -49 -63 -103 -73 -120 -9
-16 -42 -71 -72 -120 -30 -50 -66 -111 -80 -135 -14 -25 -63 -108 -108 -185
-303 -518 -624 -1127 -800 -1520 -39 -88 -79 -178 -90 -200 -10 -22 -52 -126
-93 -230 -204 -517 -324 -966 -364 -1370 -10 -101 -10 -575 0 -720 12 -188 32
-346 77 -625 45 -282 155 -689 272 -1010 298 -813 759 -1538 1376 -2160 207
-209 230 -230 434 -401 687 -575 1540 -1003 2420 -1214 132 -31 348 -75 443
-90 49 -7 165 -23 220 -30 22 -3 56 -7 75 -10 19 -3 67 -7 106 -10 39 -3 86
-8 105 -11 19 -3 196 -7 394 -9 327 -3 455 1 622 19 32 4 83 9 113 12 30 3 84
9 120 15 36 5 79 11 95 13 61 7 223 36 320 56 55 12 111 23 125 26 40 8 319
81 390 102 159 47 373 124 540 192 69 29 143 59 165 68 94 38 462 228 600 309
348 205 663 433 960 697 105 93 435 422 516 516 175 201 385 474 499 650 256
394 387 647 595 1145 59 140 157 443 212 655 60 231 129 592 148 775 4 33 8
67 10 75 2 8 7 60 11 115 3 55 8 109 11 120 9 39 12 601 4 685 -16 156 -45
352 -72 470 -6 25 -12 52 -14 61 -9 42 -38 159 -50 199 -7 25 -23 79 -35 120
-25 86 -87 276 -100 305 -5 11 -12 31 -16 45 -11 40 -157 403 -217 540 -103
234 -286 610 -395 813 -22 40 -59 108 -82 152 -73 137 -240 434 -313 560 -38
66 -81 140 -94 164 -66 116 -421 701 -602 992 -23 36 -84 137 -96 157 -5 10
-19 31 -30 47 -11 17 -25 39 -32 50 -14 24 -240 384 -298 475 -506 787 -1381
2213 -1573 2560 -13 25 -37 65 -52 90 -29 47 -130 227 -222 395 -31 55 -70
127 -89 160 -135 244 -599 1156 -599 1178 0 3 -20 47 -44 99 -325 696 -639
1575 -766 2143 -10 44 -29 132 -43 195 -15 63 -29 129 -32 145 -4 26 -28 165
-40 235 -7 40 -45 324 -51 375 -1 17 -6 75 -10 130 -4 55 -8 107 -10 115 -1 8
-3 50 -3 93 -1 92 -17 104 -20 15z"/>
</g>
</svg>
